<svg xmlns="http://www.w3.org/2000/svg" xmlns:xlink="http://www.w3.org/1999/xlink" width="1000" zoomAndPan="magnify" viewBox="0 0 750 749.999995" height="1000" preserveAspectRatio="xMidYMid meet" version="1.0"><defs><clipPath id="557ec3aa84"><path d="M 202.460938 202.460938 L 547.460938 202.460938 L 547.460938 547.460938 L 202.460938 547.460938 Z M 202.460938 202.460938 " clip-rule="nonzero"/></clipPath></defs><g clip-path="url(#557ec3aa84)"><path fill="#e4c334" d="M 387.070312 202.460938 C 382.089844 202.460938 377.28125 204.570312 373.914062 208.203125 L 277.476562 307.484375 L 277.476562 442.511719 L 373.914062 541.789062 C 377.28125 545.453125 382.089844 547.53125 387.070312 547.53125 C 396.945312 547.53125 405.003906 539.472656 405.003906 529.597656 L 405.003906 220.394531 C 405.003906 210.519531 396.945312 202.460938 387.070312 202.460938 Z M 485.234375 265.636719 L 476.824219 278.035156 C 510.082031 297.578125 532.527344 333.679688 532.527344 374.996094 C 532.527344 416.3125 510.082031 452.414062 476.824219 471.960938 L 485.234375 484.355469 C 522.476562 462.085938 547.53125 421.472656 547.53125 374.996094 C 547.53125 328.523438 522.476562 287.910156 485.234375 265.636719 Z M 459.945312 302.824219 L 451.449219 315.308594 C 472.867188 326.648438 487.519531 349.121094 487.519531 374.996094 C 487.519531 400.871094 472.867188 423.347656 451.449219 434.6875 L 459.945312 447.167969 C 485.320312 433.046875 502.523438 406.027344 502.523438 374.996094 C 502.523438 343.964844 485.320312 316.949219 459.945312 302.824219 Z M 224.964844 307.484375 C 212.570312 307.484375 202.460938 317.59375 202.460938 329.988281 L 202.460938 420.007812 C 202.460938 432.402344 212.570312 442.511719 224.964844 442.511719 L 262.472656 442.511719 L 262.472656 307.484375 Z M 434.421875 340.390625 L 425.660156 353.3125 C 435.332031 355.832031 442.511719 364.535156 442.511719 374.996094 C 442.511719 385.457031 435.332031 394.160156 425.660156 396.679688 L 434.421875 409.601562 C 447.960938 403.917969 457.511719 390.554688 457.511719 374.996094 C 457.511719 359.4375 447.960938 346.046875 434.421875 340.390625 Z M 434.421875 340.390625 " fill-opacity="1" fill-rule="nonzero"/></g></svg>