<svg xmlns="http://www.w3.org/2000/svg" xmlns:xlink="http://www.w3.org/1999/xlink" width="1000" zoomAndPan="magnify" viewBox="0 0 750 749.999995" height="1000" preserveAspectRatio="xMidYMid meet" version="1.0"><path fill="#e4c334" d="M 375 0 C 368.863281 0 362.730469 0.152344 356.601562 0.453125 C 350.46875 0.753906 344.351562 1.203125 338.242188 1.804688 C 332.136719 2.40625 326.046875 3.160156 319.976562 4.058594 C 313.90625 4.960938 307.859375 6.007812 301.839844 7.207031 C 295.820312 8.402344 289.835938 9.746094 283.882812 11.238281 C 277.929688 12.730469 272.015625 14.367188 266.144531 16.148438 C 260.269531 17.929688 254.445312 19.851562 248.667969 21.921875 C 242.886719 23.988281 237.164062 26.195312 231.492188 28.546875 C 225.824219 30.894531 220.214844 33.378906 214.667969 36.003906 C 209.117188 38.628906 203.640625 41.386719 198.226562 44.28125 C 192.8125 47.171875 187.476562 50.195312 182.210938 53.351562 C 176.949219 56.507812 171.765625 59.789062 166.660156 63.199219 C 161.558594 66.609375 156.542969 70.140625 151.613281 73.796875 C 146.683594 77.453125 141.847656 81.226562 137.101562 85.121094 C 132.359375 89.015625 127.710938 93.023438 123.164062 97.144531 C 118.617188 101.265625 114.175781 105.496094 109.835938 109.835938 C 105.496094 114.175781 101.265625 118.617188 97.144531 123.164062 C 93.023438 127.710938 89.015625 132.359375 85.121094 137.101562 C 81.226562 141.847656 77.453125 146.683594 73.796875 151.613281 C 70.140625 156.542969 66.609375 161.558594 63.199219 166.660156 C 59.789062 171.765625 56.507812 176.949219 53.351562 182.210938 C 50.195312 187.476562 47.171875 192.8125 44.28125 198.226562 C 41.386719 203.640625 38.628906 209.117188 36.003906 214.667969 C 33.378906 220.214844 30.894531 225.824219 28.546875 231.492188 C 26.195312 237.164062 23.988281 242.886719 21.921875 248.667969 C 19.851562 254.445312 17.929688 260.269531 16.148438 266.144531 C 14.367188 272.015625 12.730469 277.929688 11.238281 283.882812 C 9.746094 289.835938 8.402344 295.820312 7.207031 301.839844 C 6.007812 307.859375 4.960938 313.90625 4.058594 319.976562 C 3.160156 326.046875 2.40625 332.136719 1.804688 338.242188 C 1.203125 344.351562 0.753906 350.46875 0.453125 356.597656 C 0.152344 362.730469 0 368.863281 0 375 C 0 381.136719 0.152344 387.269531 0.453125 393.398438 C 0.753906 399.53125 1.203125 405.648438 1.804688 411.757812 C 2.40625 417.863281 3.160156 423.953125 4.058594 430.023438 C 4.960938 436.09375 6.007812 442.140625 7.207031 448.160156 C 8.402344 454.179688 9.746094 460.164062 11.238281 466.117188 C 12.730469 472.070312 14.367188 477.984375 16.148438 483.855469 C 17.929688 489.730469 19.851562 495.554688 21.921875 501.332031 C 23.988281 507.113281 26.195312 512.835938 28.546875 518.507812 C 30.894531 524.175781 33.378906 529.785156 36.003906 535.332031 C 38.628906 540.882812 41.386719 546.359375 44.28125 551.773438 C 47.171875 557.1875 50.195312 562.523438 53.351562 567.789062 C 56.507812 573.050781 59.789062 578.234375 63.199219 583.339844 C 66.609375 588.441406 70.140625 593.457031 73.796875 598.386719 C 77.453125 603.316406 81.226562 608.152344 85.121094 612.898438 C 89.015625 617.640625 93.023438 622.289062 97.144531 626.835938 C 101.265625 631.382812 105.496094 635.824219 109.835938 640.164062 C 114.175781 644.503906 118.617188 648.734375 123.164062 652.855469 C 127.710938 656.976562 132.359375 660.984375 137.101562 664.878906 C 141.847656 668.773438 146.683594 672.546875 151.613281 676.203125 C 156.542969 679.859375 161.558594 683.390625 166.660156 686.800781 C 171.765625 690.210938 176.949219 693.492188 182.210938 696.648438 C 187.476562 699.804688 192.8125 702.828125 198.226562 705.71875 C 203.640625 708.613281 209.117188 711.371094 214.667969 713.996094 C 220.214844 716.621094 225.824219 719.105469 231.492188 721.453125 C 237.164062 723.804688 242.886719 726.011719 248.667969 728.078125 C 254.445312 730.148438 260.269531 732.070312 266.144531 733.851562 C 272.015625 735.632812 277.929688 737.269531 283.882812 738.761719 C 289.835938 740.253906 295.820312 741.597656 301.839844 742.792969 C 307.859375 743.992188 313.90625 745.039062 319.976562 745.941406 C 326.046875 746.839844 332.136719 747.59375 338.242188 748.195312 C 344.351562 748.796875 350.46875 749.246094 356.597656 749.546875 C 362.730469 749.847656 368.863281 750 375 750 C 381.136719 750 387.269531 749.847656 393.398438 749.546875 C 399.53125 749.246094 405.648438 748.796875 411.757812 748.195312 C 417.863281 747.59375 423.953125 746.839844 430.023438 745.941406 C 436.09375 745.039062 442.140625 743.992188 448.160156 742.792969 C 454.179688 741.597656 460.164062 740.253906 466.117188 738.761719 C 472.070312 737.269531 477.984375 735.632812 483.855469 733.851562 C 489.730469 732.070312 495.554688 730.148438 501.332031 728.078125 C 507.113281 726.011719 512.835938 723.804688 518.507812 721.453125 C 524.175781 719.105469 529.785156 716.621094 535.332031 713.996094 C 540.882812 711.371094 546.359375 708.613281 551.773438 705.71875 C 557.1875 702.828125 562.523438 699.804688 567.789062 696.648438 C 573.050781 693.492188 578.234375 690.210938 583.339844 686.800781 C 588.441406 683.390625 593.457031 679.859375 598.386719 676.203125 C 603.316406 672.546875 608.152344 668.773438 612.898438 664.878906 C 617.640625 660.984375 622.289062 656.976562 626.835938 652.855469 C 631.382812 648.734375 635.824219 644.503906 640.164062 640.164062 C 644.503906 635.824219 648.734375 631.382812 652.855469 626.835938 C 656.976562 622.289062 660.984375 617.640625 664.878906 612.898438 C 668.773438 608.152344 672.546875 603.316406 676.203125 598.386719 C 679.859375 593.457031 683.390625 588.441406 686.800781 583.339844 C 690.210938 578.234375 693.492188 573.050781 696.648438 567.789062 C 699.804688 562.523438 702.828125 557.1875 705.71875 551.773438 C 708.613281 546.359375 711.371094 540.882812 713.996094 535.332031 C 716.621094 529.785156 719.105469 524.175781 721.453125 518.507812 C 723.804688 512.835938 726.011719 507.113281 728.078125 501.332031 C 730.148438 495.554688 732.070312 489.730469 733.851562 483.855469 C 735.632812 477.984375 737.269531 472.070312 738.761719 466.117188 C 740.253906 460.164062 741.597656 454.179688 742.792969 448.160156 C 743.992188 442.140625 745.039062 436.09375 745.941406 430.023438 C 746.839844 423.953125 747.59375 417.863281 748.195312 411.757812 C 748.796875 405.648438 749.246094 399.53125 749.546875 393.398438 C 749.847656 387.269531 750 381.136719 750 375 C 749.996094 368.863281 749.839844 362.734375 749.53125 356.605469 C 749.226562 350.476562 748.769531 344.359375 748.160156 338.253906 C 747.554688 332.148438 746.800781 326.0625 745.894531 319.992188 C 744.988281 313.925781 743.9375 307.882812 742.734375 301.867188 C 741.535156 295.847656 740.1875 289.867188 738.691406 283.914062 C 737.195312 277.964844 735.558594 272.054688 733.773438 266.183594 C 731.988281 260.3125 730.0625 254.488281 727.992188 248.714844 C 725.921875 242.9375 723.710938 237.214844 721.359375 231.550781 C 719.007812 225.882812 716.519531 220.273438 713.894531 214.730469 C 711.269531 209.183594 708.507812 203.707031 705.617188 198.296875 C 702.722656 192.886719 699.695312 187.550781 696.539062 182.289062 C 693.382812 177.027344 690.101562 171.847656 686.691406 166.746094 C 683.28125 161.644531 679.75 156.628906 676.09375 151.703125 C 672.4375 146.777344 668.664062 141.941406 664.769531 137.199219 C 660.875 132.457031 656.871094 127.8125 652.75 123.265625 C 648.628906 118.71875 644.398438 114.277344 640.0625 109.9375 C 635.722656 105.601562 631.28125 101.371094 626.734375 97.25 C 622.1875 93.128906 617.542969 89.125 612.800781 85.230469 C 608.058594 81.335938 603.222656 77.5625 598.296875 73.90625 C 593.371094 70.25 588.355469 66.71875 583.253906 63.308594 C 578.152344 59.898438 572.972656 56.617188 567.710938 53.460938 C 562.449219 50.304688 557.113281 47.277344 551.703125 44.382812 C 546.292969 41.492188 540.816406 38.730469 535.269531 36.105469 C 529.726562 33.480469 524.117188 30.992188 518.449219 28.640625 C 512.785156 26.289062 507.0625 24.078125 501.285156 22.007812 C 495.511719 19.9375 489.6875 18.011719 483.816406 16.226562 C 477.945312 14.441406 472.035156 12.804688 466.085938 11.308594 C 460.132812 9.8125 454.152344 8.464844 448.132812 7.265625 C 442.117188 6.0625 436.074219 5.011719 430.007812 4.105469 C 423.9375 3.199219 417.851562 2.445312 411.746094 1.839844 C 405.640625 1.230469 399.523438 0.773438 393.394531 0.46875 C 387.265625 0.160156 381.136719 0.00390625 375 0 Z M 561.785156 390.714844 L 276.070312 541.070312 C 273.453125 542.222656 270.714844 542.820312 267.855469 542.855469 C 264.519531 542.929688 261.421875 542.09375 258.570312 540.355469 C 257.253906 539.554688 256.0625 538.601562 254.992188 537.492188 C 253.925781 536.378906 253.015625 535.152344 252.265625 533.808594 C 251.511719 532.460938 250.945312 531.042969 250.5625 529.550781 C 250.179688 528.058594 249.992188 526.539062 250 525 L 250 225 C 249.992188 223.460938 250.179688 221.941406 250.5625 220.449219 C 250.945312 218.957031 251.511719 217.539062 252.265625 216.191406 C 253.015625 214.847656 253.925781 213.621094 254.992188 212.507812 C 256.0625 211.398438 257.253906 210.445312 258.570312 209.644531 C 259.90625 208.890625 261.316406 208.324219 262.800781 207.933594 C 264.28125 207.546875 265.789062 207.351562 267.320312 207.351562 C 268.855469 207.351562 270.363281 207.546875 271.84375 207.933594 C 273.328125 208.324219 274.734375 208.890625 276.070312 209.644531 L 561.785156 360 C 563.253906 360.71875 564.597656 361.628906 565.8125 362.726562 C 567.027344 363.824219 568.066406 365.066406 568.933594 366.453125 C 569.800781 367.84375 570.457031 369.324219 570.910156 370.898438 C 571.359375 372.472656 571.585938 374.078125 571.585938 375.714844 C 571.585938 377.351562 571.359375 378.957031 570.910156 380.53125 C 570.457031 382.105469 569.800781 383.585938 568.933594 384.972656 C 568.066406 386.363281 567.027344 387.605469 565.8125 388.703125 C 564.597656 389.800781 563.253906 390.707031 561.785156 391.429688 Z M 561.785156 390.714844 " fill-opacity="1" fill-rule="nonzero"/></svg>