<svg xmlns="http://www.w3.org/2000/svg" xmlns:xlink="http://www.w3.org/1999/xlink" width="1000" zoomAndPan="magnify" viewBox="0 0 750 749.999995" height="1000" preserveAspectRatio="xMidYMid meet" version="1.0"><path fill="#e4c334" d="M 192.585938 298.675781 L 545.671875 474.804688 C 547.570312 475.753906 549.585938 476.230469 551.601562 476.230469 C 556.464844 476.230469 561.089844 473.5 563.464844 468.875 C 566.664062 462.351562 564.054688 454.40625 557.53125 451.203125 L 204.328125 275.074219 C 202.429688 274.125 200.414062 273.652344 198.515625 273.652344 C 193.652344 273.652344 189.027344 276.378906 186.652344 281.003906 C 183.332031 287.527344 186.0625 295.355469 192.585938 298.675781 Z M 192.585938 298.675781 " fill-opacity="1" fill-rule="nonzero"/><path fill="#e4c334" d="M 255.328125 344.695312 L 255.328125 425.464844 C 255.328125 442.902344 269.441406 457.015625 286.875 457.015625 L 335.859375 457.015625 L 335.859375 384.785156 Z M 255.328125 344.695312 " fill-opacity="1" fill-rule="nonzero"/><path fill="#e4c334" d="M 335.976562 325.957031 L 335.976562 292.628906 L 286.996094 292.628906 C 282.605469 292.628906 278.335938 293.578125 274.539062 295.238281 Z M 335.976562 325.957031 " fill-opacity="1" fill-rule="nonzero"/><path fill="#e4c334" d="M 494.671875 405.183594 L 494.671875 225.140625 C 494.671875 209.484375 476.761719 200.589844 464.308594 209.960938 L 353.414062 292.863281 L 353.414062 334.613281 Z M 494.671875 405.183594 " fill-opacity="1" fill-rule="nonzero"/><path fill="#e4c334" d="M 353.414062 393.679688 L 353.414062 457.132812 L 464.308594 540.039062 C 476.882812 549.40625 494.671875 540.511719 494.671875 524.855469 L 494.671875 464.25 Z M 353.414062 393.679688 " fill-opacity="1" fill-rule="nonzero"/></svg>